# xmcd
#
# Track frame offsets:
# 150
# 16345
# 32672
# 49500
# 65767
# 82970
# 99400
# 118590
# 135310
# 151200
# 167330
# 182452
# 199887
# 219550
#
# Disc length: 3165 seconds
#
#
# Revision: 0
# Processed by: cddbd v1.5.2PL0 Copyright (c) Steve Scherf et al.
# Submitted via: FreeRIP 2.945 
#
DISCID=ab0c5b0e
DTITLE=Bom Balanço - Quem é Que Balança o Brasil?
DYEAR=2000
DGENRE=Samba
TTITLE0=Tô Fazendo Falta
TTITLE1=Guelén Guelén
TTITLE2=Estrelinha
TTITLE3=Banjo Descarado
TTITLE4=Daniela
TTITLE5=Aladim
TTITLE6=Verdadeiro Amor
TTITLE7=Molinho, Molinho
TTITLE8=No Balanço Do Navio
TTITLE9=Quero Você
TTITLE10=Samba Reggae
TTITLE11=Nana Eu
TTITLE12=Pot-Pourri Junino
TTITLE13=Twist
EXTD=
EXTT0=
EXTT1=
EXTT2=
EXTT3=
EXTT4=
EXTT5=
EXTT6=
EXTT7=
EXTT8=
EXTT9=
EXTT10=
EXTT11=
EXTT12=
EXTT13=
PLAYORDER=
